# xmcd CD database file
#
# Track frame offsets:
#	150
#	10522
#	21609
#	35848
#	53999
#	70331
#	101240
#	126025
#	143813
#	165108
#
# Disc length: 2541 seconds
#
# Revision: 0
# Processed by: cddbd v1.5.2PL0 Copyright (c) Steve Scherf et al.
# Submitted via: CDex 1.51
#
DISCID=8609eb0a
DTITLE=Jazz - Masters of Jazz
DYEAR=2006
DGENRE=Jazz
TTITLE0=My Funny Valentine - Chet Baker
TTITLE1=Misty Blue - Ella Fitzgerald
TTITLE2=Round Midnight - Thelonious Monk
TTITLE3=It Never Entered my Mind - Miles Davis
TTITLE4=At Last - Lou Rawls - Dianne Reeves
TTITLE5=Infant Eyes - Wayne Shorter
TTITLE6=Cantaloupe Island - Herbie Hancock
TTITLE7=Make it go Away - Holly Cole
TTITLE8=Something to Live for - Lena Horne
TTITLE9=Beatrice - Joe Henderson
EXTD=YEAR: 2006
EXTT0=
EXTT1=
EXTT2=
EXTT3=
EXTT4=
EXTT5=
EXTT6=
EXTT7=
EXTT8=
EXTT9=
PLAYORDER=
